<?xml version="1.0" standalone="no"?>
<!DOCTYPE svg PUBLIC "-//W3C//DTD SVG 20010904//EN"
 "http://www.w3.org/TR/2001/REC-SVG-20010904/DTD/svg10.dtd">
<svg version="1.0" xmlns="http://www.w3.org/2000/svg"
 width="640.000000pt" height="640.000000pt" viewBox="0 0 640.000000 640.000000"
 preserveAspectRatio="xMidYMid meet">

<g transform="translate(0.000000,640.000000) scale(0.100000,-0.100000)"
fill="#000000" stroke="none">
<path d="M0 3200 l0 -3200 3200 0 3200 0 0 2565 c0 1703 -3 2565 -10 2565 -5
0 -10 7 -10 16 0 8 4 12 10 9 14 -8 12 7 -3 26 -7 9 -19 16 -29 16 -13 0 -14
-5 -7 -25 5 -14 7 -27 4 -30 -3 -3 -5 0 -5 6 0 6 -7 9 -15 6 -8 -4 -15 -2 -15
4 0 5 -12 13 -27 17 -16 4 -22 10 -16 12 10 4 9 8 -1 19 -8 8 -19 14 -24 14
-5 0 -8 26 -7 57 2 56 -18 123 -37 123 -4 0 -8 5 -8 10 0 6 7 10 17 10 15 0
15 1 0 18 -10 10 -14 22 -10 26 4 4 1 11 -6 16 -9 5 -11 15 -6 26 9 23 6 101
-5 123 -4 9 -13 28 -21 44 -7 15 -18 27 -26 27 -16 0 -17 17 -2 22 7 2 5 11
-7 23 -17 17 -17 18 -1 12 14 -5 16 -2 13 18 -9 50 -17 64 -39 68 -21 4 -21 4
-1 6 23 1 47 42 38 66 -6 16 -26 20 -37 8 -13 -13 -58 -9 -53 4 3 7 1 13 -5
13 -6 0 -7 5 -3 11 5 8 1 8 -14 0 -21 -11 -22 -30 -7 -138 5 -37 4 -43 -12
-43 -14 0 -15 2 -4 9 9 6 10 14 3 27 -6 11 -10 23 -10 29 -1 14 -22 19 -22 5
0 -6 5 -20 10 -31 7 -12 7 -19 1 -19 -5 0 -12 9 -16 19 -3 11 -17 21 -35 23
-23 3 -30 0 -34 -16 -3 -12 -5 -23 -5 -25 0 -2 -5 -8 -13 -13 -9 -7 -5 -8 15
-5 15 2 27 0 27 -5 0 -5 4 -7 9 -3 5 3 13 0 17 -6 4 -7 3 -10 -2 -6 -5 3 -20
-1 -33 -8 l-25 -13 35 -7 c19 -4 37 -13 42 -19 5 -8 10 -7 17 4 8 13 10 12 10
-2 0 -12 -8 -18 -21 -18 -15 0 -19 -5 -15 -15 3 -8 -2 -19 -12 -24 -15 -9 -14
-10 5 -11 12 0 25 5 28 10 4 6 11 7 17 4 6 -4 5 -10 -3 -15 -11 -7 -10 -9 4
-9 21 0 22 -9 0 -25 -15 -11 -14 -14 5 -33 13 -13 28 -19 41 -15 19 5 21 1 21
-36 0 -22 5 -41 10 -41 15 0 8 -33 -10 -47 -13 -11 -13 -13 0 -14 8 -1 22 0
29 1 13 1 13 -1 2 -14 -12 -14 -11 -16 5 -16 17 0 16 -3 -6 -21 -14 -11 -19
-18 -12 -14 7 3 12 0 12 -7 0 -8 -6 -20 -12 -27 -11 -11 -9 -13 10 -8 12 3 22
1 22 -4 0 -5 -4 -9 -10 -9 -5 0 -10 -9 -10 -20 0 -11 -4 -20 -10 -20 -13 0
-43 -60 -35 -68 4 -4 13 2 21 12 11 16 14 17 14 4 0 -9 -8 -19 -17 -22 -15 -6
-15 -8 -3 -16 12 -8 10 -10 -9 -10 -21 0 -22 -2 -10 -17 12 -15 12 -16 -4 -10
-10 4 -27 7 -37 7 -29 0 -61 39 -54 67 5 17 3 22 -8 18 -9 -4 -19 4 -26 20 -6
14 -18 25 -27 25 -8 0 -15 5 -15 10 0 6 -4 10 -10 10 -5 0 -7 -6 -4 -14 3 -7
-2 -16 -10 -19 -9 -4 -16 -11 -16 -16 0 -7 9 -6 25 1 21 10 27 8 39 -8 14 -18
12 -19 -22 -25 l-37 -6 38 -2 c26 -1 37 -6 37 -16 0 -8 7 -15 16 -15 14 0 14
-3 3 -16 -11 -14 -13 -14 -21 1 -5 8 -14 13 -19 10 -5 -4 -6 -11 -3 -17 5 -7
1 -9 -9 -5 -10 3 -17 2 -17 -2 0 -5 -10 -7 -22 -4 -14 3 -18 1 -11 -4 15 -11
27 -59 16 -66 -5 -3 -15 -2 -23 4 -8 5 -11 9 -7 9 14 0 -26 60 -40 60 -18 0
-16 -7 7 -32 15 -16 17 -24 8 -30 -10 -5 -8 -11 7 -22 11 -8 17 -18 13 -22 -4
-4 -14 -2 -21 4 -8 7 -18 8 -22 4 -5 -4 -5 -2 -2 5 11 17 -62 93 -90 93 -24 0
-31 -14 -13 -25 15 -9 12 -25 -5 -25 -8 0 -15 5 -15 12 0 6 -3 8 -6 5 -4 -4
-1 -14 6 -22 11 -14 10 -17 -7 -21 -15 -4 -19 -12 -15 -30 2 -13 8 -24 13 -24
4 0 6 -26 3 -59 -4 -41 -3 -61 6 -66 7 -4 16 -2 21 6 4 7 12 10 16 5 4 -5 2
-11 -4 -13 -7 -3 -13 -11 -13 -19 0 -12 -4 -12 -20 -4 -19 10 -25 6 -20 -15 1
-5 -4 -4 -11 3 -21 20 -37 14 -41 -15 -2 -14 -9 -29 -17 -31 -8 -3 -11 0 -7 7
5 7 -1 11 -13 11 -23 0 -28 -15 -8 -23 9 -4 9 -6 0 -6 -7 -1 -13 -10 -13 -21
0 -22 -10 -26 -27 -9 -9 9 -10 7 -6 -10 5 -18 1 -21 -26 -21 -33 0 -38 -8 -18
-29 10 -11 10 -13 0 -7 -8 4 -13 1 -13 -8 0 -8 -6 -19 -14 -23 -7 -4 -16 -28
-20 -53 -4 -30 -3 -40 4 -30 11 18 25 6 16 -15 -3 -9 -14 -15 -23 -13 -14 2
-17 -3 -15 -23 1 -15 -4 -32 -13 -39 -13 -11 -13 -14 0 -27 20 -19 20 -40 1
-24 -10 9 -16 9 -21 1 -9 -15 25 -41 45 -35 12 4 12 3 -1 -8 -9 -6 -20 -23
-24 -37 -4 -14 -13 -28 -19 -32 -8 -6 -8 -10 0 -15 6 -5 11 -35 11 -68 0 -33
-2 -52 -4 -42 -3 9 -8 17 -13 17 -9 0 -24 -66 -21 -92 3 -25 -17 -31 -52 -15
-18 8 -39 17 -47 20 -12 4 -12 6 1 6 9 1 20 8 23 17 5 13 2 14 -11 8 -10 -4
-30 -7 -45 -7 -29 0 -44 -27 -25 -46 9 -9 5 -11 -13 -9 -19 2 -25 -1 -23 -16
1 -13 -2 -15 -9 -8 -8 8 -17 8 -30 1 -10 -5 -24 -9 -31 -8 -28 3 -39 -2 -33
-16 3 -9 -4 -21 -19 -31 -13 -9 -27 -24 -30 -35 -8 -24 -35 -25 -35 -1 0 14
-2 15 -10 2 -9 -14 -15 -7 -11 14 1 5 -4 4 -12 -2 -8 -7 -17 -9 -21 -5 -4 4
-4 -1 0 -12 6 -15 4 -17 -9 -12 -18 7 -38 -28 -51 -90 -6 -26 -4 -31 16 -36
36 -10 4 -24 -62 -27 -23 -1 -24 -1 -7 -14 16 -12 24 -12 53 0 37 15 46 6 14
-14 -23 -14 -27 -34 -5 -26 11 5 13 2 9 -10 -3 -9 -13 -16 -22 -16 -14 0 -14
-2 1 -17 16 -16 19 -16 27 -3 9 13 11 13 20 0 7 -11 4 -17 -10 -22 -13 -5 -17
-13 -14 -23 4 -8 1 -22 -6 -30 -6 -8 -9 -19 -5 -25 3 -5 -1 -10 -9 -10 -9 0
-16 -5 -16 -11 0 -6 9 -8 21 -4 20 7 20 6 4 -19 -12 -17 -15 -35 -10 -56 6
-25 4 -30 -13 -30 -22 0 -35 -33 -20 -48 6 -6 8 -18 4 -27 -5 -14 -9 -15 -21
-5 -8 7 -22 10 -30 6 -8 -3 -15 -2 -15 3 0 5 10 11 22 14 18 5 19 8 8 21 -9
11 -9 16 -1 16 7 0 9 9 5 25 -6 25 10 36 19 13 3 -8 6 -5 6 5 1 11 6 16 14 12
6 -4 5 -1 -3 7 -23 20 -42 80 -29 89 7 4 8 12 5 18 -4 6 -4 16 0 23 11 17 11
58 1 58 -5 0 -6 7 -3 15 4 10 -2 19 -17 24 l-22 9 25 10 c18 8 20 11 8 11 -25
1 -23 37 2 44 20 5 29 37 10 37 -5 0 -7 -7 -4 -15 4 -9 0 -15 -10 -15 -9 0
-16 8 -16 19 0 11 -4 23 -10 26 -9 6 -12 -8 -13 -72 -1 -18 -4 -20 -14 -11
-11 9 -12 13 -1 19 9 6 6 9 -9 9 -12 0 -27 -9 -33 -20 -13 -25 -30 -26 -31 -2
0 13 -2 14 -6 2 -10 -24 -31 -41 -53 -43 -22 -1 -27 -13 -7 -20 7 -4 3 -8 -10
-12 -23 -7 -39 -38 -28 -54 3 -5 -4 -16 -15 -24 -13 -9 -18 -20 -14 -31 3 -9
1 -16 -5 -16 -6 0 -11 -11 -11 -25 0 -19 -5 -25 -22 -25 -20 0 -21 1 -3 20 16
18 16 20 2 20 -10 0 -16 3 -16 8 3 19 -2 23 -17 11 -14 -11 -16 -10 -12 11 1
13 -3 25 -9 27 -7 3 -13 0 -13 -5 0 -6 -9 -8 -20 -5 -11 3 -20 0 -20 -6 0 -22
-20 -11 -21 12 0 12 -3 16 -6 9 -4 -10 -8 -9 -18 5 -10 13 -10 20 -2 25 9 6 8
10 -2 17 -7 5 -10 14 -7 20 4 6 3 11 -3 11 -6 0 -8 7 -5 15 4 8 1 22 -6 30 -9
10 -9 15 -1 15 6 0 11 7 11 16 0 8 -4 12 -10 9 -6 -3 -10 -1 -10 4 0 6 7 11
16 11 8 0 13 4 9 9 -3 5 -2 12 3 15 10 6 8 48 -3 66 -5 8 -4 15 2 17 6 2 9 14
6 26 -4 18 -3 19 7 7 10 -13 11 -13 7 0 -2 10 -13 14 -30 12 -19 -2 -27 1 -27
12 0 9 4 16 8 16 4 0 8 17 8 38 0 20 4 45 8 55 7 15 5 16 -19 7 -32 -12 -35
-12 -35 -1 0 5 14 13 32 16 27 6 29 9 14 17 -17 9 -16 11 1 30 18 20 18 21 -7
13 -14 -4 -26 -11 -28 -16 -2 -4 -10 -5 -18 -2 -12 4 -12 8 -2 20 9 11 9 16
-3 24 -12 8 -11 12 5 24 20 15 12 40 -10 31 -7 -3 -18 3 -24 13 -9 17 -7 18
27 6 21 -7 39 -18 41 -25 3 -7 13 0 23 17 23 34 24 43 4 43 -8 0 -15 7 -15 15
0 8 -4 15 -10 15 -5 0 -10 -4 -10 -10 0 -5 -5 -10 -11 -10 -6 0 -9 7 -5 15 4
12 2 13 -13 5 -14 -7 -17 -16 -13 -32 5 -22 5 -22 -12 -5 -13 13 -17 26 -12
47 4 24 2 28 -11 23 -13 -5 -15 -1 -11 22 4 18 1 34 -8 42 -18 18 -18 33 0 33
8 0 18 5 22 12 5 8 0 9 -14 6 -16 -5 -27 1 -43 23 -11 16 -16 29 -10 29 18 0
12 18 -6 23 -17 4 -17 5 0 6 20 1 23 21 3 21 -11 0 -12 8 -5 41 6 24 6 46 1
53 -5 6 -8 22 -7 36 1 14 -3 41 -9 60 -6 19 -9 58 -6 85 6 47 7 48 17 25 l12
-25 0 28 c1 15 -8 36 -19 47 -11 11 -20 31 -20 44 0 13 -6 26 -12 29 -10 3
-10 7 0 19 10 13 10 17 0 20 -10 4 -9 8 2 19 19 18 70 20 63 2 -3 -7 -11 -13
-19 -13 -22 0 -16 -16 11 -28 14 -6 25 -18 25 -27 0 -19 16 -20 24 0 3 8 10
15 15 15 6 0 1 -16 -11 -36 -17 -28 -18 -38 -8 -44 9 -6 19 3 32 28 18 37 18
37 -3 55 -12 10 -20 19 -18 21 11 9 69 14 69 6 0 -6 5 -10 11 -10 8 0 9 4 0
13 -6 8 -7 17 -3 22 4 4 -3 4 -15 1 -12 -4 -24 -2 -28 4 -5 8 13 15 36 12 13
-2 17 39 5 51 -7 6 -11 20 -8 31 3 13 1 17 -6 12 -7 -4 -12 -4 -12 1 0 12 16
35 24 34 16 -2 18 0 6 14 -11 13 -14 13 -27 0 -8 -8 -21 -15 -28 -15 -8 0 -17
-5 -21 -11 -4 -8 0 -9 15 -4 16 5 21 2 21 -13 0 -15 -5 -18 -25 -14 -16 3 -25
11 -25 23 0 11 -4 19 -10 19 -5 0 -10 -14 -10 -31 0 -26 -3 -31 -20 -26 -26 7
-25 -3 1 -32 12 -12 19 -25 16 -28 -3 -2 -22 12 -41 33 -32 34 -36 36 -36 16
0 -12 -4 -22 -10 -22 -5 0 -9 12 -8 26 3 27 36 53 47 37 12 -18 41 -23 41 -8
0 8 -9 15 -20 15 -11 0 -20 7 -20 15 0 17 11 20 25 6 6 -6 21 0 40 15 33 26
14 35 -22 9 -19 -13 -20 -13 -20 10 0 14 3 25 8 25 16 0 9 18 -8 24 -10 3 -3
4 15 2 27 -2 31 0 26 16 -5 16 -3 17 20 7 14 -7 26 -16 26 -21 0 -5 9 -6 20
-3 13 4 22 1 26 -9 8 -20 54 -21 54 -2 0 8 8 17 18 21 15 6 13 9 -10 21 -33
17 -37 28 -8 19 14 -4 20 -2 20 9 0 8 -10 16 -22 18 -18 2 -24 11 -26 37 -3
30 -1 33 11 22 10 -8 17 -8 22 -2 3 6 -10 17 -28 25 -42 17 -76 59 -52 64 25
6 2 71 -25 72 -4 0 -4 -16 -2 -35 3 -27 1 -35 -12 -35 -9 0 -16 5 -16 10 0 6
5 10 10 10 6 0 10 5 10 10 0 6 -7 10 -16 10 -9 0 -12 5 -8 11 5 9 -1 10 -21 5
-26 -7 -27 -6 -14 10 7 9 12 27 11 40 -3 18 1 24 16 24 11 0 23 7 26 16 9 23
0 30 -18 15 -13 -11 -16 -9 -21 12 -4 14 -4 35 0 46 5 17 3 20 -11 14 -11 -4
-15 -2 -11 4 4 6 -2 13 -13 16 -17 4 -19 9 -11 30 6 16 6 28 -1 35 -8 8 -18
94 -22 199 0 17 -4 29 -8 26 -14 -8 -8 5 8 22 15 15 15 17 -5 22 l-22 6 21 19
c22 21 25 34 10 43 -6 3 -10 15 -10 25 0 10 -6 21 -12 24 -10 5 -10 7 0 12 6
3 12 13 12 23 0 9 5 22 11 28 7 7 0 15 -23 27 -31 16 -31 17 -5 11 15 -3 27
-1 27 5 0 5 -4 10 -10 10 -5 0 -7 7 -4 15 5 13 -225 15 -2035 15 l-2041 0 0
-3200z m4001 3153 c13 -17 13 -17 -6 -3 -11 8 -22 16 -24 17 -2 2 0 3 6 3 6 0
17 -8 24 -17z m9 -37 c0 -2 -7 -6 -15 -10 -8 -3 -15 -1 -15 4 0 6 7 10 15 10
8 0 15 -2 15 -4z m45 -26 c3 -6 -1 -7 -9 -4 -18 7 -21 14 -7 14 6 0 13 -4 16
-10z m-55 -20 c0 -5 -4 -10 -10 -10 -5 0 -10 5 -10 10 0 6 5 10 10 10 6 0 10
-4 10 -10z m-7 -56 c-3 -8 -13 -14 -22 -14 -14 0 -14 2 -1 10 13 9 13 12 -3
21 -9 6 -15 14 -12 19 8 14 44 -21 38 -36z m64 -6 c-3 -7 -5 -2 -5 12 0 14 2
19 5 13 2 -7 2 -19 0 -25z m-41 -38 c-10 -3 -17 -10 -16 -15 1 -5 -3 -11 -9
-13 -14 -5 -14 4 1 27 7 11 18 17 27 13 12 -5 12 -7 -3 -12z m-56 -70 c0 -5
-2 -10 -4 -10 -3 0 -8 5 -11 10 -3 6 -1 10 4 10 6 0 11 -4 11 -10z m80 -35 c5
3 10 1 10 -4 0 -6 -7 -11 -15 -11 -8 0 -15 -7 -15 -16 0 -14 -2 -14 -16 -3
-10 8 -12 15 -5 17 6 2 11 8 11 13 0 4 -7 6 -15 3 -17 -7 -18 -3 -8 22 6 15 8
15 24 -5 10 -12 23 -20 29 -16z m-24 -67 c4 -6 3 -8 -4 -4 -6 3 -15 -2 -21
-11 -12 -20 -14 -13 -5 11 7 19 20 21 30 4z m-13 -63 c1 -5 -6 -11 -15 -13
-11 -2 -18 3 -18 13 0 17 30 18 33 0z m27 -30 c-7 -9 -15 -13 -19 -10 -3 3 1
10 9 15 21 14 24 12 10 -5z m-30 -25 c0 -10 -4 -21 -9 -24 -10 -7 -23 33 -15
46 8 13 24 -1 24 -22z m2123 19 c-6 -6 -9 -19 -6 -28 4 -12 3 -13 -6 -5 -13
12 -5 44 12 44 8 0 8 -3 0 -11z m-54 -37 c-6 -18 -15 -30 -19 -27 -5 3 -1 19
8 35 21 36 25 33 11 -8z m-1969 -8 c0 -10 -5 -14 -16 -10 -8 3 -12 2 -9 -4 3
-6 1 -10 -4 -10 -15 0 -14 27 2 33 22 9 27 7 27 -9z m2004 -35 c-3 -5 -17 -9
-31 -9 -21 0 -23 3 -14 14 12 15 55 10 45 -5z m-2044 -15 c0 -2 -9 0 -20 6
-11 6 -20 13 -20 16 0 2 9 0 20 -6 11 -6 20 -13 20 -16z m32 -22 c-7 -2 -10
-8 -6 -13 3 -5 0 -9 -5 -9 -13 0 -13 3 -5 24 3 9 11 13 17 9 8 -5 7 -8 -1 -11z
m2028 8 c0 -5 -4 -10 -10 -10 -5 0 -10 5 -10 10 0 6 5 10 10 10 6 0 10 -4 10
-10z m-2075 -19 c-8 -13 -35 -15 -35 -2 0 5 8 11 18 13 21 5 26 2 17 -11z
m2025 9 c0 -5 -2 -10 -4 -10 -3 0 -8 5 -11 10 -3 6 -1 10 4 10 6 0 11 -4 11
-10z m-1935 -19 c8 -14 -67 -33 -79 -21 -7 7 -3 10 11 10 12 0 25 5 28 10 8
13 32 13 40 1z m-15 -41 c0 -5 -4 -10 -10 -10 -5 0 -10 5 -10 10 0 6 5 10 10
10 6 0 10 -4 10 -10z m-42 -20 c-7 -11 -19 -20 -26 -20 -10 0 -10 5 -2 20 6
11 17 20 25 20 13 0 13 -3 3 -20z m72 10 c0 -5 -5 -10 -11 -10 -5 0 -7 5 -4
10 3 6 8 10 11 10 2 0 4 -4 4 -10z m1905 0 c3 -5 1 -10 -4 -10 -6 0 -11 5 -11
10 0 6 2 10 4 10 3 0 8 -4 11 -10z m-1927 -45 c-3 -3 -9 2 -12 12 -6 14 -5 15
5 6 7 -7 10 -15 7 -18z m-78 -20 c0 -8 -9 -15 -20 -15 -13 0 -18 5 -14 15 4 8
12 15 20 15 8 0 14 -7 14 -15z m40 5 c0 -5 -2 -10 -4 -10 -3 0 -8 5 -11 10 -3
6 -1 10 4 10 6 0 11 -4 11 -10z m40 -8 c0 -13 -12 -22 -22 -16 -10 6 -1 24 13
24 5 0 9 -4 9 -8z m-70 -32 c-13 -9 -13 -11 0 -19 8 -6 17 -6 20 -2 3 4 13 10
22 14 12 4 15 2 11 -9 -3 -7 0 -14 6 -14 6 0 11 -5 11 -11 0 -8 -5 -8 -15 1
-19 16 -47 6 -39 -15 4 -10 0 -15 -11 -15 -11 0 -15 5 -11 15 4 11 -2 15 -21
15 -21 0 -24 2 -13 15 10 12 10 15 -1 16 -8 1 -3 5 11 9 35 11 47 11 30 0z
m-22 -72 c-2 -8 6 -12 19 -11 11 1 23 -4 26 -11 4 -10 0 -12 -14 -9 -10 3 -19
1 -19 -5 0 -5 -7 -13 -16 -16 -15 -6 -15 -4 -3 10 11 13 11 18 2 21 -15 5 -17
33 -3 33 6 0 9 -6 8 -12z m87 2 c3 -5 -1 -10 -10 -10 -9 0 -13 5 -10 10 3 6 8
10 10 10 2 0 7 -4 10 -10z m35 -10 c0 -5 -2 -10 -4 -10 -3 0 -8 5 -11 10 -3 6
-1 10 4 10 6 0 11 -4 11 -10z m50 -6 c0 -2 -7 -4 -15 -4 -8 0 -15 4 -15 10 0
5 7 7 15 4 8 -4 15 -8 15 -10z m-70 -29 c0 -8 -6 -15 -14 -15 -9 0 -13 -10
-12 -30 1 -16 -3 -30 -8 -30 -16 -1 25 -30 41 -30 8 0 13 7 11 16 -2 10 4 19
12 21 13 4 13 3 0 -6 -11 -8 -12 -11 -2 -11 7 0 10 -4 7 -10 -6 -10 6 -14 35
-11 11 1 11 -1 -3 -9 -9 -6 -22 -8 -28 -4 -6 3 -28 8 -49 9 -38 3 -100 48 -85
63 4 4 10 1 12 -5 5 -15 43 -17 43 -3 0 6 -6 10 -14 10 -8 0 -17 7 -20 16 -5
14 -4 15 9 4 9 -7 19 -10 22 -6 4 4 1 11 -6 15 -12 8 1 16 47 30 1 1 2 -6 2
-14z m28 -10 c-3 -3 -9 2 -12 12 -6 14 -5 15 5 6 7 -7 10 -15 7 -18z m92 -10
c0 -8 -9 -15 -20 -15 -25 0 -26 17 -2 23 9 3 18 5 20 6 1 0 2 -6 2 -14z m-60
-16 c0 -11 -4 -17 -10 -14 -5 3 -10 13 -10 21 0 8 5 14 10 14 6 0 10 -9 10
-21z m-30 -9 c0 -5 -2 -10 -4 -10 -3 0 -8 5 -11 10 -3 6 -1 10 4 10 6 0 11 -4
11 -10z m-116 -66 c5 -14 4 -15 -9 -4 -17 14 -19 20 -6 20 5 0 12 -7 15 -16z
m21 -34 c3 -5 2 -17 -3 -26 -6 -11 -12 -13 -16 -6 -4 6 -14 8 -23 5 -11 -4
-14 -3 -9 5 4 7 14 12 22 12 8 0 12 5 9 10 -3 6 -2 10 4 10 5 0 13 -4 16 -10z
m35 0 c0 -5 -2 -10 -4 -10 -3 0 -8 5 -11 10 -3 6 -1 10 4 10 6 0 11 -4 11 -10z
m200 -3 c0 -2 -10 -12 -21 -23 -22 -19 -22 -19 -8 4 12 19 29 30 29 19z m-207
-57 c3 -11 1 -20 -4 -20 -5 0 -9 -7 -9 -16 0 -13 -3 -14 -14 -5 -11 9 -15 9
-19 -1 -4 -9 -6 -8 -6 3 -1 20 23 42 34 31 4 -4 4 4 0 17 -4 15 -3 21 3 17 5
-3 12 -15 15 -26z m-41 5 c0 -5 -5 -11 -11 -13 -6 -2 -11 4 -11 13 0 9 5 15
11 13 6 -2 11 -8 11 -13z m2060 -67 c-3 -12 -7 -17 -10 -10 -2 6 -11 12 -20
12 -15 0 -15 2 -2 10 26 17 39 12 32 -12z m8 -48 c0 -5 -4 -10 -10 -10 -5 0
-10 5 -10 10 0 6 5 10 10 10 6 0 10 -4 10 -10z m-1935 -20 c3 -5 -3 -10 -14
-10 -11 0 -23 5 -26 10 -3 6 3 10 14 10 11 0 23 -4 26 -10z m-89 -35 c3 -17 2
-17 -20 -9 -13 5 -14 9 -5 20 13 16 22 12 25 -11z m1900 -10 c-4 -25 -14 -28
-38 -10 l-23 17 23 -7 c13 -4 22 -2 22 4 0 6 4 11 9 11 5 0 8 -7 7 -15z
m-1842 -30 c-26 -18 -29 -11 -7 14 10 12 19 17 21 11 2 -6 -4 -17 -14 -25z
m1555 2 c0 -21 -1 -21 -9 -2 -12 28 -12 37 0 30 6 -3 10 -16 9 -28z m201 13
c0 -5 -8 -10 -17 -10 -15 0 -16 2 -3 10 19 12 20 12 20 0z m-174 -57 c-10 -10
-19 5 -10 18 6 11 8 11 12 0 2 -7 1 -15 -2 -18z m-56 3 c0 -3 -4 -8 -10 -11
-5 -3 -10 -1 -10 4 0 6 5 11 10 11 6 0 10 -2 10 -4z m223 -3 c-7 -2 -19 -2
-25 0 -7 3 -2 5 12 5 14 0 19 -2 13 -5z m-143 -27 c0 -8 -8 -13 -17 -11 -10 2
-21 4 -25 4 -21 2 -5 21 17 21 15 0 25 -6 25 -14z m50 -10 c0 -3 -4 -8 -10
-11 -5 -3 -10 -1 -10 4 0 6 5 11 10 11 6 0 10 -2 10 -4z m-45 -36 c-3 -5 -11
-10 -16 -10 -6 0 -7 5 -4 10 3 6 11 10 16 10 6 0 7 -4 4 -10z m-309 -306 c-3
-9 -6 -18 -6 -20 0 -2 -4 -4 -9 -4 -5 0 -7 9 -4 20 3 11 10 20 15 20 6 0 7 -7
4 -16z m37 -8 c3 -8 -1 -17 -9 -20 -9 -4 -14 1 -14 14 0 23 15 27 23 6z m-77
-54 c-12 -11 -18 7 -10 30 l8 23 4 -23 c2 -13 1 -26 -2 -30z m-2801 -476 c17
-12 21 -12 31 3 7 9 16 12 21 7 4 -5 2 -11 -4 -13 -13 -5 -19 -33 -7 -33 9 0
34 28 34 39 0 6 11 1 25 -11 29 -25 34 -60 8 -57 -31 3 -43 -1 -43 -12 0 -6 9
-9 20 -6 11 3 20 1 20 -4 0 -5 -8 -9 -17 -9 -13 -1 -10 -5 10 -16 38 -21 34
-26 -8 -8 -42 17 -46 17 -44 2 3 -27 -2 -38 -17 -38 -10 0 -14 -5 -10 -15 9
-24 -23 -30 -40 -9 -14 17 -15 17 -10 2 3 -12 0 -18 -9 -18 -8 0 -15 -5 -15
-11 0 -5 -4 -8 -9 -4 -6 3 -15 -4 -21 -15 -6 -11 -21 -20 -35 -20 -13 0 -27
-4 -30 -10 -10 -16 -22 -12 -27 8 -5 19 37 70 44 53 4 -11 68 -2 68 10 0 5
-12 6 -27 3 -16 -2 -35 0 -43 6 -13 9 -13 11 0 20 10 6 11 10 3 10 -7 0 -13 5
-13 10 0 6 13 4 30 -5 27 -14 44 -5 20 10 -6 4 -8 11 -4 16 3 6 2 18 -2 27 -4
9 -8 27 -9 40 -1 19 4 22 37 22 31 0 38 4 38 20 0 24 9 25 35 6z m2685 -76 c0
-5 -5 -10 -11 -10 -5 0 -7 5 -4 10 3 6 8 10 11 10 2 0 4 -4 4 -10z m-145 -20
c3 -5 2 -10 -4 -10 -5 0 -13 5 -16 10 -3 6 -2 10 4 10 5 0 13 -4 16 -10z
m-2327 -18 c6 -18 -15 -14 -22 4 -4 10 -1 14 6 12 6 -2 14 -10 16 -16z m-121
-28 c14 -13 14 -17 2 -25 -8 -5 -21 -9 -29 -9 -13 0 -13 2 -1 9 8 5 11 16 8
25 -8 20 0 20 20 0z m1583 -8 c0 -3 -4 -8 -10 -11 -5 -3 -10 -1 -10 4 0 6 5
11 10 11 6 0 10 -2 10 -4z m630 -10 c0 -3 -4 -8 -10 -11 -5 -3 -10 -1 -10 4 0
6 5 11 10 11 6 0 10 -2 10 -4z m22 -28 c-7 -7 -12 -8 -12 -2 0 6 3 14 7 17 3
4 9 5 12 2 2 -3 -1 -11 -7 -17z m38 2 c0 -5 -4 -10 -10 -10 -5 0 -10 5 -10 10
0 6 5 10 10 10 6 0 10 -4 10 -10z m-2531 -13 c-10 -9 -59 -17 -59 -9 0 4 14 9
32 10 18 2 30 1 27 -1z m2496 -25 c-3 -3 -11 0 -18 7 -9 10 -8 11 6 5 10 -3
15 -9 12 -12z m31 -17 c-2 -7 1 -18 7 -24 6 -6 8 -14 4 -18 -4 -3 -15 2 -25
13 -14 14 -16 23 -8 36 11 19 30 13 22 -7z m-2276 5 c0 -5 -5 -10 -11 -10 -5
0 -7 5 -4 10 3 6 8 10 11 10 2 0 4 -4 4 -10z m-302 -14 c-13 -14 -28 -12 -28
5 0 5 9 9 20 9 17 0 19 -2 8 -14z m32 -26 c0 -14 37 -12 43 3 3 8 10 6 21 -8
18 -23 21 -45 6 -45 -5 0 -10 7 -10 15 0 8 -7 15 -15 15 -8 0 -15 -4 -15 -10
0 -5 5 -10 10 -10 6 0 10 -4 10 -10 0 -5 -7 -7 -15 -4 -10 4 -15 0 -16 -12 0
-11 -3 -14 -6 -6 -2 6 -11 12 -19 12 -8 0 -14 5 -14 10 0 6 7 10 15 10 8 0 15
5 15 11 0 6 -7 9 -15 5 -10 -4 -15 1 -15 14 0 11 5 20 10 20 6 0 10 -4 10 -10z
m180 1 c0 -5 9 -12 20 -16 12 -4 19 -14 17 -27 -1 -11 3 -23 10 -25 8 -3 11 5
10 23 -1 15 4 29 11 31 8 3 10 -1 6 -11 -5 -13 -2 -15 12 -9 17 6 18 5 4 -12
-11 -14 -12 -19 -2 -22 6 -3 12 -15 12 -27 0 -29 10 -39 26 -25 8 6 14 7 18 0
4 -6 -2 -15 -13 -21 -15 -8 -22 -7 -28 4 -11 18 -50 29 -58 16 -3 -5 1 -10 9
-10 9 0 16 -4 16 -10 0 -5 6 -10 13 -10 6 0 21 -8 32 -17 19 -15 19 -15 -7 -9
-16 4 -28 3 -28 -2 0 -5 12 -15 28 -22 19 -9 23 -14 12 -18 -8 -3 -27 -13 -42
-23 -14 -11 -34 -19 -44 -19 -22 0 -7 17 20 22 17 3 17 4 -3 22 -21 19 -21 19
-21 -2 0 -12 -4 -22 -10 -22 -5 0 -10 7 -10 15 0 14 6 21 45 51 12 9 14 14 5
11 -9 -3 -21 8 -32 29 -12 24 -14 32 -4 28 7 -3 16 3 20 13 4 9 4 14 0 10 -12
-11 -35 30 -27 49 5 12 3 15 -6 9 -8 -4 -17 -2 -22 6 -12 19 -11 29 1 29 6 0
10 -4 10 -9z m2317 3 c-3 -3 -12 -4 -19 -1 -8 3 -5 6 6 6 11 1 17 -2 13 -5z
m-37 -34 c0 -5 -4 -10 -10 -10 -5 0 -10 5 -10 10 0 6 5 10 10 10 6 0 10 -4 10
-10z m-2300 -16 c0 -9 9 -18 20 -21 26 -7 26 -23 -1 -23 -43 0 -61 21 -50 58
4 10 31 -2 31 -14z m-230 -14 c0 -5 -5 -10 -11 -10 -5 0 -7 5 -4 10 3 6 8 10
11 10 2 0 4 -4 4 -10z m187 -16 c3 -10 -12 -11 -50 -5 -5 0 -5 6 -2 12 9 13
47 8 52 -7z m2092 -15 c-13 -26 -19 -24 -19 6 0 17 4 23 15 19 11 -5 12 -11 4
-25z m61 6 c10 -13 9 -15 -9 -15 -11 0 -21 -5 -21 -11 0 -6 9 -8 23 -4 21 6
21 6 -3 -14 -42 -34 -48 -29 -28 26 13 37 20 40 38 18z m-2325 -5 c3 -5 2 -10
-4 -10 -5 0 -13 5 -16 10 -3 6 -2 10 4 10 5 0 13 -4 16 -10z m171 -35 c-5 -14
-9 -15 -21 -5 -8 7 -26 10 -40 8 -14 -3 -25 -2 -25 2 0 11 28 20 44 14 8 -3
17 0 21 6 11 17 29 -5 21 -25z m34 0 c0 -7 -7 -16 -16 -19 -12 -5 -15 -2 -10
10 3 8 6 20 6 25 0 6 5 7 10 4 6 -3 10 -12 10 -20z m40 -15 c0 -5 -4 -10 -10
-10 -5 0 -10 5 -10 10 0 6 5 10 10 10 6 0 10 -4 10 -10z m-170 -38 c0 -7 -4
-10 -10 -7 -5 3 -10 16 -10 28 0 18 2 19 10 7 5 -8 10 -21 10 -28z m2301 18
c13 -10 19 -19 12 -20 -6 0 -19 7 -28 16 -9 9 -19 13 -23 10 -6 -7 10 -21 33
-29 6 -3 7 -8 3 -12 -4 -4 -14 -2 -22 4 -11 10 -16 9 -23 -2 -10 -18 -53 -32
-53 -18 0 5 9 13 20 16 11 3 20 11 20 16 0 11 -3 11 -35 -1 -38 -14 -22 7 18
24 44 19 51 19 78 -4z m-2381 -6 c0 -8 -5 -12 -10 -9 -6 4 -8 11 -5 16 9 14
15 11 15 -7z m392 -26 c-7 -7 -12 -8 -12 -2 0 6 3 14 7 17 3 4 9 5 12 2 2 -3
-1 -11 -7 -17z m2128 2 c0 -5 -4 -10 -10 -10 -5 0 -10 5 -10 10 0 6 5 10 10
10 6 0 10 -4 10 -10z m-2385 -20 c-3 -5 -12 -10 -20 -10 -8 0 -17 5 -20 10 -4
6 5 10 20 10 15 0 24 -4 20 -10z m102 -27 c-3 -10 -5 -4 -5 12 0 17 2 24 5 18
2 -7 2 -21 0 -30z m191 12 c-3 -3 -9 2 -12 12 -6 14 -5 15 5 6 7 -7 10 -15 7
-18z m1747 4 c11 -17 -1 -21 -15 -4 -8 9 -8 15 -2 15 6 0 14 -5 17 -11z m125
-22 c0 -4 -12 -4 -27 -1 -34 8 -37 10 -29 22 7 11 56 -7 56 -21z m190 18 c0
-8 -4 -15 -10 -15 -5 0 -10 7 -10 15 0 8 5 15 10 15 6 0 10 -7 10 -15z m45
-15 c3 -5 -1 -10 -9 -10 -9 0 -16 5 -16 10 0 6 4 10 9 10 6 0 13 -4 16 -10z
m-555 -10 c0 -5 -7 -7 -15 -4 -8 4 -15 8 -15 10 0 2 7 4 15 4 8 0 15 -4 15
-10z m230 -5 c-7 -9 -15 -13 -19 -10 -3 3 1 10 9 15 21 14 24 12 10 -5z m-153
-11 c3 -9 0 -20 -8 -25 -22 -14 -27 -11 -21 16 5 28 20 33 29 9z m518 5 c11
-17 -1 -21 -15 -4 -8 9 -8 15 -2 15 6 0 14 -5 17 -11z m-264 -21 c9 -19 9 -21
-2 -10 -7 6 -26 12 -41 12 -15 0 -28 5 -28 10 0 6 13 10 30 10 20 0 33 -7 41
-22z m-19 -73 c6 -29 -7 -34 -15 -6 -4 17 0 31 9 31 1 0 4 -11 6 -25z m25 -7
c-3 -7 -5 -2 -5 12 0 14 2 19 5 13 2 -7 2 -19 0 -25z m25 -20 c-7 -7 -12 -8
-12 -2 0 6 3 14 7 17 3 4 9 5 12 2 2 -3 -1 -11 -7 -17z m-12 -33 c10 -12 10
-15 -4 -15 -9 0 -16 7 -16 15 0 8 2 15 4 15 2 0 9 -7 16 -15z m-42 -22 c-2
-14 -9 -28 -16 -31 -9 -3 -10 2 -3 21 5 14 7 28 4 31 -4 3 -1 6 6 6 7 0 11
-10 9 -27z m-1568 -28 c0 -8 -2 -15 -4 -15 -2 0 -6 7 -10 15 -3 8 -1 15 4 15
6 0 10 -7 10 -15z m1175 5 c3 -5 1 -10 -4 -10 -6 0 -11 5 -11 10 0 6 2 10 4
10 3 0 8 -4 11 -10z m145 -16 c0 -2 -7 -4 -15 -4 -8 0 -15 4 -15 10 0 5 7 7
15 4 8 -4 15 -8 15 -10z m282 -16 c-9 -9 -12 -7 -12 12 0 19 3 21 12 12 9 -9
9 -15 0 -24z m-422 2 c0 -5 -2 -10 -4 -10 -3 0 -8 5 -11 10 -3 6 -1 10 4 10 6
0 11 -4 11 -10z m404 -16 c20 -8 21 -24 2 -24 -8 0 -16 7 -20 15 -6 17 -4 18
18 9z m-1602 -54 c-7 -12 -7 -21 0 -28 7 -7 4 -14 -11 -21 -17 -10 -21 -9 -21
4 0 8 -6 15 -12 15 -8 1 -6 6 5 14 17 14 23 27 10 25 -5 -1 -16 -1 -26 0 -16
1 -16 3 -5 15 35 34 84 14 60 -24z m1328 38 c0 -4 -4 -8 -9 -8 -6 0 -12 4 -15
8 -3 5 1 9 9 9 8 0 15 -4 15 -9z m-16 -33 c-4 -8 -8 -15 -10 -15 -2 0 -4 7 -4
15 0 8 4 15 10 15 5 0 7 -7 4 -15z m280 0 c-6 -16 -34 -21 -34 -7 0 13 11 22
26 22 8 0 11 -6 8 -15z m-2379 -73 c-3 -3 -11 0 -18 7 -9 10 -8 11 6 5 10 -3
15 -9 12 -12z m-255 -104 c0 -19 -2 -20 -10 -8 -13 19 -13 30 0 30 6 0 10 -10
10 -22z m190 -8 c0 -5 -5 -10 -11 -10 -5 0 -7 5 -4 10 3 6 8 10 11 10 2 0 4
-4 4 -10z m105 -40 c3 -6 -1 -7 -9 -4 -18 7 -21 14 -7 14 6 0 13 -4 16 -10z
m2530 -10 c3 -5 1 -10 -4 -10 -6 0 -11 5 -11 10 0 6 2 10 4 10 3 0 8 -4 11
-10z m-2458 -35 c-2 -5 -9 -10 -15 -9 -7 1 -21 2 -33 3 -32 2 -15 16 20 16 17
0 30 -4 28 -10z m-410 -21 c-3 -3 -12 -4 -19 -1 -8 3 -5 6 6 6 11 1 17 -2 13
-5z m369 -50 c-3 -9 -6 -18 -6 -20 0 -2 -4 -4 -9 -4 -5 0 -7 9 -4 20 3 11 10
20 15 20 6 0 7 -7 4 -16z m2534 2 c0 -2 -8 -10 -17 -17 -16 -13 -17 -12 -4 4
13 16 21 21 21 13z m-2670 -26 c12 -8 11 -10 -7 -10 -13 0 -23 5 -23 10 0 13
11 13 30 0z m-20 -40 c0 -5 -4 -10 -10 -10 -5 0 -10 5 -10 10 0 6 5 10 10 10
6 0 10 -4 10 -10z m30 -34 c0 -3 -4 -8 -10 -11 -5 -3 -10 -1 -10 4 0 6 5 11
10 11 6 0 10 -2 10 -4z m76 -56 c-2 -22 0 -43 5 -46 5 -3 9 2 9 11 0 10 5 14
13 11 6 -3 20 -9 30 -12 19 -7 22 -20 7 -29 -5 -3 -10 -14 -10 -23 1 -15 2
-15 15 2 8 11 15 17 15 13 0 -4 9 -3 21 3 17 9 23 8 34 -6 12 -17 13 -16 19 4
9 27 30 18 23 -10 -7 -27 10 -71 24 -62 7 4 7 10 1 16 -14 14 -2 48 17 48 13
0 14 -2 2 -9 -12 -8 -12 -12 -2 -25 8 -9 10 -16 6 -16 -4 0 -2 -7 5 -15 17
-21 30 -19 30 4 0 11 6 18 15 17 21 -3 31 -16 12 -16 -20 0 -23 -26 -4 -33 9
-4 8 -8 -3 -16 -8 -5 -11 -13 -7 -17 3 -4 13 -2 21 5 10 9 15 8 19 -2 7 -18
-12 -47 -20 -29 -10 25 -21 11 -19 -23 3 -33 -5 -41 -36 -36 -5 0 -8 -2 -8 -6
1 -13 38 -54 47 -52 19 3 27 -2 15 -9 -19 -13 -29 -84 -11 -80 10 2 13 -5 11
-21 -2 -14 0 -21 6 -17 6 4 14 1 18 -6 4 -7 4 -10 -1 -6 -20 18 -33 -14 -28
-66 4 -34 1 -56 -6 -60 -6 -4 -11 -14 -11 -22 0 -18 -24 -44 -39 -44 -6 0 -8
-6 -5 -14 3 -8 1 -17 -5 -21 -7 -4 -8 -12 -2 -24 9 -16 5 -61 -6 -61 -2 0 -13
5 -24 10 -12 7 -19 7 -19 1 0 -6 -6 -8 -14 -5 -8 3 -16 2 -19 -3 -3 -4 9 -9
25 -10 17 -1 36 -7 44 -14 17 -14 35 -3 28 16 -5 12 -1 13 27 3 19 -6 35 -12
37 -13 1 -1 -7 -12 -18 -25 -11 -13 -23 -20 -28 -15 -4 4 -1 10 6 12 6 3 12
11 12 19 0 13 -3 13 -22 0 -12 -9 -31 -16 -41 -16 -27 0 -15 -24 14 -28 13 -2
30 -9 37 -15 11 -9 10 -12 -7 -19 -12 -4 -21 -14 -21 -22 0 -7 -7 -16 -15 -20
-8 -3 -15 -1 -15 4 0 6 -7 10 -16 10 -14 0 -44 22 -44 33 0 3 7 7 14 10 10 4
13 1 10 -7 -8 -21 12 -28 26 -11 11 13 10 14 -4 9 -9 -4 -16 -3 -15 2 4 26 -2
43 -15 38 -8 -3 -17 -1 -21 5 -8 14 -35 14 -35 1 0 -5 7 -7 15 -4 17 7 21 -11
5 -21 -6 -4 -8 -10 -6 -14 3 -4 0 -13 -5 -21 -8 -12 -12 -12 -16 -2 -2 6 -11
12 -18 12 -7 0 -15 9 -18 20 -3 11 -1 18 3 15 11 -7 30 27 30 50 0 9 -6 15
-12 12 -7 -2 -12 -10 -11 -18 2 -8 -7 -15 -21 -15 -17 -1 -23 2 -19 12 2 7 -2
23 -11 36 -9 12 -16 18 -16 13 -1 -6 -8 4 -17 20 -10 17 -16 36 -15 43 4 16
-6 15 -25 -3 -12 -12 -18 -13 -29 -4 -8 7 -13 17 -11 23 2 6 -8 19 -22 28 -14
10 -20 18 -13 18 6 0 12 7 12 15 0 8 6 12 13 9 10 -4 12 3 9 28 -5 30 -6 31
-13 10 -5 -12 -15 -22 -24 -22 -13 0 -14 4 -4 22 9 17 9 24 -3 32 -13 9 -11
15 10 36 l24 25 -4 -27 c-5 -27 -1 -30 30 -27 4 0 6 7 4 15 -4 22 10 17 35
-13 13 -14 26 -23 30 -19 12 12 -56 66 -74 59 -12 -5 -15 -2 -10 10 5 13 1 17
-17 17 -18 0 -23 5 -22 23 1 20 6 22 63 23 70 1 88 9 52 23 -15 5 -26 5 -31
-2 -8 -13 -38 15 -38 35 0 8 -5 19 -11 25 -9 9 -7 12 7 12 34 -1 58 7 62 21 4
10 -4 11 -32 6 -40 -8 -47 5 -23 38 18 24 9 67 -14 73 -11 3 -19 9 -19 13 0 4
-10 11 -22 15 -23 8 -23 8 2 12 16 3 30 16 40 36 8 18 21 31 28 30 18 -4 15
10 -8 30 -26 22 -33 22 -21 -1 7 -13 6 -23 -1 -30 -18 -18 -28 -14 -28 8 0 11
-4 20 -10 20 -5 0 -8 13 -7 30 2 30 9 34 52 32 11 0 14 2 8 4 -18 8 -16 27 1
21 8 -3 16 0 19 6 2 7 18 13 36 14 30 2 30 1 27 -37z m-296 -28 c0 -4 -9 -8
-19 -8 -11 0 -17 4 -15 8 3 4 12 8 20 8 8 0 14 -4 14 -8z m43 -39 c2 -5 7 -26
10 -48 4 -22 4 -34 1 -27 -9 19 -24 14 -21 -7 1 -11 -2 -20 -8 -20 -5 0 -9 8
-7 19 2 10 -4 30 -13 44 -15 23 -15 25 2 35 22 13 30 13 36 4z m17 -128 c-7
-9 -15 -13 -18 -10 -3 2 1 11 8 20 7 9 15 13 18 10 3 -2 -1 -11 -8 -20z m910
-20 c-7 -8 -10 -21 -7 -29 3 -8 -2 -16 -13 -19 -11 -3 -21 0 -23 7 -7 19 14
65 31 68 22 5 27 -9 12 -27z m-780 -25 c0 -5 -4 -10 -10 -10 -5 0 -10 5 -10
10 0 6 5 10 10 10 6 0 10 -4 10 -10z m827 4 c-3 -3 -12 -4 -19 -1 -8 3 -5 6 6
6 11 1 17 -2 13 -5z m-362 -14 c3 -6 -1 -7 -9 -4 -18 7 -21 14 -7 14 6 0 13
-4 16 -10z m72 -16 c-3 -3 -12 -4 -19 -1 -8 3 -5 6 6 6 11 1 17 -2 13 -5z
m-60 -70 c-3 -3 -12 -4 -19 -1 -8 3 -5 6 6 6 11 1 17 -2 13 -5z m8 -144 c-3
-5 -12 -10 -18 -10 -7 0 -6 4 3 10 19 12 23 12 15 0z m45 -150 c0 -5 -5 -10
-11 -10 -5 0 -7 5 -4 10 3 6 8 10 11 10 2 0 4 -4 4 -10z m-530 -60 c0 -5 -5
-10 -11 -10 -5 0 -7 5 -4 10 3 6 8 10 11 10 2 0 4 -4 4 -10z m370 -10 c0 -5
-4 -10 -10 -10 -5 0 -10 5 -10 10 0 6 5 10 10 10 6 0 10 -4 10 -10z m-373 -42
c-3 -8 -6 -5 -6 6 -1 11 2 17 5 13 3 -3 4 -12 1 -19z m72 -16 c-3 -37 2 -51
21 -57 11 -3 20 -14 20 -23 0 -11 -3 -13 -8 -6 -4 6 -17 16 -30 23 -12 7 -20
16 -17 21 3 4 0 10 -6 12 -6 2 -8 14 -4 31 7 28 27 27 24 -1z m331 -12 c0 -5
-2 -10 -4 -10 -3 0 -8 5 -11 10 -3 6 -1 10 4 10 6 0 11 -4 11 -10z m78 -23
c13 5 14 3 5 -7 -14 -15 -33 -5 -32 18 1 16 2 16 6 0 3 -11 10 -15 21 -11z
m95 4 l28 -18 -31 -13 c-53 -22 -47 -32 16 -29 58 4 59 3 62 -23 3 -22 -1 -28
-17 -28 -11 0 -24 7 -29 16 -9 16 -11 16 -33 0 l-23 -16 32 0 c17 0 32 -5 32
-11 0 -6 -8 -8 -18 -5 -12 4 -21 -3 -30 -24 -8 -17 -21 -30 -30 -29 -11 0 -12
2 -4 6 22 9 13 33 -13 33 -25 0 -44 24 -30 38 4 4 10 1 12 -5 3 -7 14 -12 26
-12 19 1 20 2 3 6 -15 4 -16 7 -5 15 11 8 10 9 -3 4 -11 -3 -24 5 -37 22 -17
24 -22 25 -40 14 -12 -7 -21 -8 -21 -3 0 12 30 25 52 22 18 -2 38 27 31 47 -7
19 38 15 70 -7z m132 -61 c-3 -5 -12 -10 -18 -10 -7 0 -6 4 3 10 19 12 23 12
15 0z m-575 -40 c0 -5 -2 -10 -4 -10 -3 0 -8 5 -11 10 -3 6 -1 10 4 10 6 0 11
-4 11 -10z m310 6 c0 -3 -4 -8 -10 -11 -5 -3 -10 -1 -10 4 0 6 5 11 10 11 6 0
10 -2 10 -4z m-270 -56 c0 -5 -5 -10 -11 -10 -5 0 -7 5 -4 10 3 6 8 10 11 10
2 0 4 -4 4 -10z m75 0 c3 -5 1 -10 -4 -10 -6 0 -11 5 -11 10 0 6 2 10 4 10 3
0 8 -4 11 -10z m41 -31 c2 -37 24 -66 24 -31 0 12 5 22 10 22 6 0 10 -3 9 -7
-2 -16 14 -53 21 -48 4 3 13 -2 19 -9 10 -11 9 -24 0 -55 -13 -43 -16 -46 -38
-32 -11 7 -11 10 3 18 12 7 14 15 7 38 l-9 30 -1 -27 c-1 -34 -21 -37 -21 -4
0 14 -4 27 -9 31 -17 10 -36 59 -33 83 5 32 17 27 18 -9z m120 -15 c2 -23 1
-24 -12 -7 -17 23 -17 33 -1 33 6 0 13 -11 13 -26z m-171 -44 c3 -5 1 -10 -4
-10 -6 0 -11 5 -11 10 0 6 2 10 4 10 3 0 8 -4 11 -10z m220 -54 c12 -12 11
-15 -5 -19 -20 -5 -45 15 -33 26 10 11 23 8 38 -7z m-29 -47 c5 -8 9 -8 14 1
5 9 23 10 60 5 44 -6 50 -9 34 -17 -10 -6 -25 -18 -32 -27 -12 -15 -14 -14
-27 3 -8 10 -21 16 -29 13 -8 -3 -17 -1 -19 6 -3 9 -9 9 -26 -1 -23 -13 -24
-12 -15 12 7 18 30 21 40 5z m122 -70 c-3 -16 -1 -29 3 -29 4 0 10 -7 13 -16
3 -8 2 -13 -3 -9 -5 3 -11 0 -13 -6 -3 -8 -10 -6 -21 5 -15 16 -14 46 3 46 4
0 5 12 2 26 -4 20 -2 25 8 19 7 -4 10 -20 8 -36z m56 21 c-10 -4 -19 -12 -19
-19 0 -6 -3 -11 -7 -11 -5 0 -8 2 -8 5 0 3 0 12 0 21 0 8 4 13 9 9 5 -3 12 -1
16 5 4 6 11 7 18 3 7 -4 4 -9 -9 -13z m-171 -14 c4 -10 1 -13 -8 -9 -8 3 -12
9 -9 14 7 12 11 11 17 -5z m75 -18 c-5 -14 -48 -22 -48 -9 0 5 10 12 23 14 12
2 24 5 25 6 2 0 2 -4 0 -11z"/>
<path d="M2685 3750 c4 -6 11 -8 16 -5 14 9 11 15 -7 15 -8 0 -12 -5 -9 -10z"/>
<path d="M2260 2740 c0 -5 4 -10 9 -10 6 0 13 5 16 10 3 6 -1 10 -9 10 -9 0
-16 -4 -16 -10z"/>
<path d="M2351 2734 c0 -11 3 -14 6 -6 3 7 2 16 -1 19 -3 4 -6 -2 -5 -13z"/>
<path d="M2421 2721 c-11 -7 -10 -13 5 -34 19 -26 68 -44 61 -23 -2 6 -9 11
-15 11 -15 0 -43 40 -35 49 9 9 0 7 -16 -3z"/>
<path d="M2225 2629 c-10 -15 1 -23 20 -15 9 3 13 10 10 16 -8 13 -22 13 -30
-1z"/>
<path d="M2251 2531 c-21 -13 -5 -29 24 -23 28 5 33 17 9 26 -19 7 -16 8 -33
-3z"/>
<path d="M2246 2441 c-11 -18 6 -39 30 -37 26 1 34 16 9 16 -8 0 -15 7 -15 15
0 17 -16 20 -24 6z"/>
<path d="M2310 2325 c0 -16 -6 -25 -16 -25 -8 0 -12 -5 -9 -11 4 -6 14 -8 22
-5 9 4 13 0 11 -12 -1 -9 2 -18 7 -19 6 -1 11 21 12 48 2 37 -1 49 -12 49 -9
0 -15 -10 -15 -25z"/>
<path d="M2255 2320 c3 -5 8 -10 11 -10 2 0 4 5 4 10 0 6 -5 10 -11 10 -5 0
-7 -4 -4 -10z"/>
<path d="M2570 2320 c-13 -8 -12 -10 3 -10 9 0 17 5 17 10 0 12 -1 12 -20 0z"/>
<path d="M2370 2266 c0 -9 5 -16 10 -16 6 0 10 4 10 9 0 6 -4 13 -10 16 -5 3
-10 -1 -10 -9z"/>
<path d="M2445 2220 c27 -12 35 -12 35 0 0 6 -12 10 -27 9 -25 0 -26 -1 -8 -9z"/>
<path d="M2280 2185 c0 -9 5 -15 11 -13 6 2 11 8 11 13 0 5 -5 11 -11 13 -6 2
-11 -4 -11 -13z"/>
<path d="M2250 2167 c0 -10 8 -17 18 -17 9 0 13 4 7 8 -5 4 -13 11 -17 16 -5
5 -8 2 -8 -7z"/>
<path d="M2390 2165 c0 -8 4 -15 10 -15 5 0 7 7 4 15 -4 8 -8 15 -10 15 -2 0
-4 -7 -4 -15z"/>
<path d="M2328 2163 c6 -2 12 -9 12 -15 0 -6 -7 -8 -15 -4 -8 3 -15 0 -15 -7
0 -15 58 -67 74 -66 7 0 7 2 -1 6 -7 2 -13 17 -13 31 -1 32 -21 62 -41 61 -10
0 -11 -2 -1 -6z"/>
<path d="M2420 2110 c0 -5 5 -10 10 -10 6 0 10 5 10 10 0 6 -4 10 -10 10 -5 0
-10 -4 -10 -10z"/>
<path d="M2300 2090 c0 -5 7 -7 15 -4 8 4 15 8 15 10 0 2 -7 4 -15 4 -8 0 -15
-4 -15 -10z"/>
<path d="M2398 2088 c5 -5 16 -8 23 -6 8 3 3 7 -10 11 -17 4 -21 3 -13 -5z"/>
<path d="M2520 1880 c0 -5 5 -10 11 -10 5 0 7 5 4 10 -3 6 -8 10 -11 10 -2 0
-4 -4 -4 -10z"/>
<path d="M2747 2004 c-8 -8 1 -24 14 -24 5 0 9 7 9 15 0 15 -12 20 -23 9z"/>
<path d="M4163 6386 c-24 -13 -21 -29 3 -19 19 7 18 -7 -2 -22 -15 -11 -15
-12 2 -12 11 0 22 5 26 11 4 6 10 7 15 3 4 -5 1 -12 -7 -17 -17 -10 -23 -69
-9 -86 6 -8 1 -10 -17 -6 -19 3 -25 1 -20 -7 4 -6 16 -11 27 -11 11 0 17 -4
14 -10 -3 -5 -1 -18 5 -29 7 -14 7 -22 -1 -27 -9 -5 -7 -11 5 -19 15 -12 15
-13 -1 -19 -14 -6 -15 -9 -3 -16 12 -7 12 -11 -1 -26 -13 -16 -12 -17 13 -12
15 3 29 0 32 -6 2 -6 5 -3 5 7 1 9 5 17 11 17 5 0 7 -6 5 -12 -5 -15 33 -64
42 -54 3 3 -1 14 -10 24 -12 13 -15 28 -11 50 7 35 -5 42 -26 17 -15 -19 -22
-13 -26 20 -2 16 4 29 15 35 25 13 33 47 13 55 -14 5 -14 8 -3 15 8 4 20 6 28
3 7 -3 13 2 13 11 0 9 -7 16 -15 16 -8 0 -15 -4 -15 -10 0 -5 -4 -10 -9 -10
-12 0 -3 54 10 58 5 2 9 11 9 19 0 10 -6 13 -16 9 -11 -4 -15 -2 -11 8 3 8 1
17 -6 20 -9 3 -8 7 3 15 12 8 9 12 -13 20 -34 13 -45 13 -74 -3z m77 -86 c0
-5 -5 -10 -11 -10 -5 0 -7 5 -4 10 3 6 8 10 11 10 2 0 4 -4 4 -10z m-4 -94
c19 -20 18 -26 -5 -26 -14 0 -19 6 -18 20 2 24 4 24 23 6z"/>
<path d="M4408 6393 c7 -3 16 -2 19 1 4 3 -2 6 -13 5 -11 0 -14 -3 -6 -6z"/>
<path d="M4718 6393 c6 -2 18 -2 25 0 6 3 1 5 -13 5 -14 0 -19 -2 -12 -5z"/>
<path d="M4770 6390 c0 -5 5 -10 12 -10 22 0 -6 -18 -39 -25 -25 -5 -32 -3
-28 7 3 8 -3 13 -20 14 -28 2 -34 -11 -9 -20 8 -3 12 -10 9 -16 -3 -5 0 -10 8
-10 8 0 15 -6 14 -12 -1 -29 3 -48 11 -47 19 3 26 -2 13 -10 -21 -14 -41 -2
-41 24 0 13 -7 26 -16 29 -13 5 -15 1 -10 -19 6 -22 3 -25 -20 -25 -23 0 -25
2 -14 15 7 9 11 17 9 18 -2 1 -17 9 -32 17 -16 8 -26 19 -23 27 7 18 -2 16
-21 -3 -10 -10 -12 -18 -6 -22 5 -4 9 -18 9 -32 0 -46 33 -72 35 -27 0 15 2
17 6 7 3 -8 11 -18 17 -22 13 -9 -13 -30 -27 -21 -12 7 -78 -7 -73 -16 6 -9
69 -7 106 4 18 5 21 4 11 -3 -10 -7 -4 -10 25 -10 21 0 43 6 49 14 8 11 12 9
22 -12 l12 -25 -57 7 c-31 5 -68 7 -81 7 -27 -1 -59 -29 -47 -40 5 -5 11 -2
13 5 6 17 24 15 51 -7 20 -18 22 -51 2 -51 -5 0 -7 -8 -6 -17 2 -12 12 -18 27
-18 19 0 24 -5 26 -27 2 -28 23 -67 55 -102 10 -11 18 -30 18 -43 0 -13 5 -23
10 -23 6 0 10 -16 10 -36 0 -24 4 -33 12 -28 6 4 8 3 4 -4 -3 -6 -2 -22 3 -35
7 -18 7 -27 -2 -30 -8 -2 -6 -9 6 -21 9 -9 21 -14 27 -11 5 3 10 1 10 -4 0 -6
4 -11 8 -11 5 0 9 13 9 30 0 16 -4 27 -8 24 -11 -6 -7 109 4 117 4 3 -2 17
-13 31 -16 21 -19 37 -16 80 4 45 1 57 -14 68 -15 11 -16 17 -7 33 9 15 9 21
0 24 -7 2 -9 11 -6 20 5 12 1 14 -14 9 -14 -4 -20 -2 -20 9 0 8 9 15 20 15 17
0 19 5 14 37 -4 20 -3 42 2 47 14 19 22 76 9 73 -6 -1 -13 4 -16 12 -4 11 2
13 27 8 18 -4 31 -2 31 3 0 6 -6 10 -14 10 -21 0 -40 26 -25 35 8 6 7 10 -2
16 -19 12 -39 11 -39 -1z m-13 -63 c12 5 14 3 8 -6 -4 -8 -2 -17 6 -22 9 -6
10 -9 2 -9 -15 0 -43 28 -42 43 0 9 2 9 5 0 3 -7 12 -9 21 -6z m-147 -27 c0
-5 -4 -10 -10 -10 -5 0 -10 5 -10 10 0 6 5 10 10 10 6 0 10 -4 10 -10z m75
-60 c-27 -12 -43 -12 -25 0 8 5 22 9 30 9 10 0 8 -3 -5 -9z m92 -6 c-3 -3 -12
-4 -19 -1 -8 3 -5 6 6 6 11 1 17 -2 13 -5z"/>
<path d="M4361 6378 c0 -9 -4 -25 -7 -35 -5 -14 -4 -15 5 -7 7 7 11 22 8 35
-2 13 -5 16 -6 7z"/>
<path d="M4116 6372 c-2 -4 -1 -14 5 -22 7 -12 9 -10 9 8 0 23 -5 28 -14 14z"/>
<path d="M4397 6373 c-11 -3 -16 -11 -13 -19 3 -7 1 -16 -5 -19 -5 -4 -3 -13
6 -21 8 -9 13 -20 10 -25 -4 -5 1 -6 9 -3 8 3 13 14 11 25 -2 12 2 19 11 19 8
0 14 4 14 10 0 5 -7 7 -15 4 -18 -7 -20 7 -3 24 12 12 7 13 -25 5z"/>
<path d="M4825 6370 c-3 -5 1 -10 9 -10 9 0 16 5 16 10 0 6 -4 10 -9 10 -6 0
-13 -4 -16 -10z"/>
<path d="M5198 6305 c3 -17 11 -25 25 -25 20 0 20 1 -3 25 -13 14 -24 25 -25
25 -1 0 0 -11 3 -25z"/>
<path d="M4435 6290 c-3 -5 -2 -10 4 -10 5 0 13 5 16 10 3 6 2 10 -4 10 -5 0
-13 -4 -16 -10z"/>
<path d="M4423 6230 c-1 -11 2 -18 8 -15 11 7 12 35 1 35 -4 0 -8 -9 -9 -20z"/>
<path d="M4095 6230 c3 -5 8 -10 11 -10 2 0 4 5 4 10 0 6 -5 10 -11 10 -5 0
-7 -4 -4 -10z"/>
<path d="M4452 6228 c5 -16 58 -23 58 -9 0 6 -6 8 -14 5 -8 -3 -17 -1 -21 5
-9 15 -28 14 -23 -1z"/>
<path d="M4289 6188 c0 -7 -2 -21 -4 -30 -2 -10 1 -20 6 -24 5 -3 9 11 9 30 0
33 -9 52 -11 24z"/>
<path d="M4480 6190 c0 -5 5 -10 10 -10 6 0 10 5 10 10 0 6 -4 10 -10 10 -5 0
-10 -4 -10 -10z"/>
<path d="M4840 6184 c0 -8 5 -12 10 -9 6 4 8 11 5 16 -9 14 -15 11 -15 -7z"/>
<path d="M4410 6180 c0 -5 5 -10 10 -10 6 0 10 5 10 10 0 6 -4 10 -10 10 -5 0
-10 -4 -10 -10z"/>
<path d="M4545 6150 c3 -5 8 -10 11 -10 2 0 4 5 4 10 0 6 -5 10 -11 10 -5 0
-7 -4 -4 -10z"/>
<path d="M4446 6134 c-9 -22 -8 -24 9 -24 8 0 15 9 15 20 0 24 -15 27 -24 4z"/>
<path d="M4520 6130 c0 -5 -7 -10 -17 -10 -9 0 -14 -3 -10 -6 8 -8 47 5 47 17
0 5 -4 9 -10 9 -5 0 -10 -4 -10 -10z"/>
<path d="M4600 6130 c19 -13 30 -13 30 0 0 6 -10 10 -22 10 -19 0 -20 -2 -8
-10z"/>
<path d="M5531 6124 c0 -11 3 -14 6 -6 3 7 2 16 -1 19 -3 4 -6 -2 -5 -13z"/>
<path d="M4400 6120 c0 -5 5 -10 11 -10 5 0 7 5 4 10 -3 6 -8 10 -11 10 -2 0
-4 -4 -4 -10z"/>
<path d="M4585 6100 c-3 -5 1 -10 10 -10 9 0 13 5 10 10 -3 6 -8 10 -10 10 -2
0 -7 -4 -10 -10z"/>
<path d="M6350 6099 c0 -5 5 -7 10 -4 6 3 10 8 10 11 0 2 -4 4 -10 4 -5 0 -10
-5 -10 -11z"/>
<path d="M4410 6088 c0 -4 4 -8 9 -8 6 0 12 4 15 8 3 5 -1 9 -9 9 -8 0 -15 -4
-15 -9z"/>
<path d="M4305 6080 c3 -5 8 -10 11 -10 2 0 4 5 4 10 0 6 -5 10 -11 10 -5 0
-7 -4 -4 -10z"/>
<path d="M4380 6080 c0 -5 5 -10 10 -10 6 0 10 5 10 10 0 6 -4 10 -10 10 -5 0
-10 -4 -10 -10z"/>
<path d="M4488 6073 c-24 -6 -23 -20 2 -33 18 -9 20 -8 20 15 0 14 -1 24 -2
24 -2 -1 -11 -3 -20 -6z"/>
<path d="M4430 6063 c0 -5 5 -15 10 -23 8 -12 10 -11 10 8 0 12 -4 22 -10 22
-5 0 -10 -3 -10 -7z"/>
<path d="M4368 6043 c6 -2 18 -2 25 0 6 3 1 5 -13 5 -14 0 -19 -2 -12 -5z"/>
<path d="M4661 6024 c0 -11 3 -14 6 -6 3 7 2 16 -1 19 -3 4 -6 -2 -5 -13z"/>
<path d="M4405 6020 c3 -5 8 -10 11 -10 2 0 4 5 4 10 0 6 -5 10 -11 10 -5 0
-7 -4 -4 -10z"/>
<path d="M4310 6000 c-11 -7 -12 -10 -2 -10 8 0 10 -5 5 -12 -11 -19 -14 -48
-4 -48 7 0 24 70 18 76 -1 2 -9 -1 -17 -6z"/>
<path d="M4178 5988 c17 -6 32 -14 32 -17 -1 -17 -20 -33 -34 -28 -9 4 -16 2
-16 -3 0 -6 11 -10 25 -10 14 0 25 5 25 10 0 6 14 10 30 10 17 0 30 5 30 11 0
5 -5 7 -11 4 -6 -4 -13 1 -15 11 -4 15 -16 19 -52 21 -46 2 -46 1 -14 -9z"/>
<path d="M5995 5990 c3 -5 8 -10 11 -10 2 0 4 5 4 10 0 6 -5 10 -11 10 -5 0
-7 -4 -4 -10z"/>
<path d="M6187 5980 c3 -11 7 -20 9 -20 2 0 4 9 4 20 0 11 -4 20 -9 20 -5 0
-7 -9 -4 -20z"/>
<path d="M5985 5960 c3 -5 13 -10 21 -10 8 0 14 5 14 10 0 6 -9 10 -21 10 -11
0 -17 -4 -14 -10z"/>
<path d="M6152 5950 c7 -10 14 -18 15 -16 6 6 -9 36 -18 36 -5 0 -4 -9 3 -20z"/>
<path d="M5690 5950 c0 -5 5 -10 10 -10 6 0 10 5 10 10 0 6 -4 10 -10 10 -5 0
-10 -4 -10 -10z"/>
<path d="M4530 5930 c-13 -8 -12 -10 3 -10 9 0 17 5 17 10 0 12 -1 12 -20 0z"/>
<path d="M4219 5909 c-13 -13 -18 -27 -13 -41 4 -13 2 -18 -4 -14 -13 8 -43
-4 -37 -15 3 -4 12 -6 20 -2 8 3 15 0 15 -6 0 -6 8 -11 18 -11 13 0 14 -2 3
-9 -7 -5 -11 -14 -7 -20 4 -6 2 -20 -4 -31 -6 -12 -7 -20 -1 -20 5 0 12 8 16
19 4 13 12 17 32 13 18 -3 24 -1 19 7 -4 6 -13 11 -21 11 -9 0 -13 16 -13 60
1 55 2 59 20 49 18 -9 18 -8 8 10 -14 26 -25 26 -51 0z"/>
<path d="M4300 5909 c-13 -9 -12 -10 3 -5 9 3 17 1 17 -5 0 -6 5 -7 10 -4 14
9 12 25 -2 25 -7 0 -20 -5 -28 -11z"/>
<path d="M5980 5905 c0 -18 -16 -20 -23 -2 -3 6 -6 2 -6 -10 -1 -15 8 -24 27
-31 28 -9 28 -9 28 24 -1 33 -26 51 -26 19z"/>
<path d="M4557 5892 c-9 -10 -14 -21 -11 -25 9 -8 36 21 32 34 -2 6 -11 2 -21
-9z"/>
<path d="M5915 5898 c-4 -9 -5 -25 -3 -34 2 -14 5 -15 14 -3 7 8 8 22 4 34 -7
18 -9 18 -15 3z"/>
<path d="M6320 5900 c0 -5 5 -10 10 -10 6 0 10 5 10 10 0 6 -4 10 -10 10 -5 0
-10 -4 -10 -10z"/>
<path d="M5590 5889 c0 -5 5 -7 10 -4 6 3 10 8 10 11 0 2 -4 4 -10 4 -5 0 -10
-5 -10 -11z"/>
<path d="M4506 5874 c-4 -9 -4 -19 -1 -22 2 -3 7 3 11 12 4 9 4 19 1 22 -2 3
-7 -3 -11 -12z"/>
<path d="M4295 5870 c3 -5 10 -10 16 -10 5 0 9 5 9 10 0 6 -7 10 -16 10 -8 0
-12 -4 -9 -10z"/>
<path d="M4380 5870 c0 -5 5 -10 11 -10 5 0 7 5 4 10 -3 6 -8 10 -11 10 -2 0
-4 -4 -4 -10z"/>
<path d="M6146 5854 c-8 -22 -8 -24 8 -24 21 0 26 13 11 27 -10 10 -14 9 -19
-3z"/>
<path d="M5060 5850 c0 -5 5 -10 11 -10 5 0 7 5 4 10 -3 6 -8 10 -11 10 -2 0
-4 -4 -4 -10z"/>
<path d="M5940 5850 c0 -5 5 -10 11 -10 5 0 7 5 4 10 -3 6 -8 10 -11 10 -2 0
-4 -4 -4 -10z"/>
<path d="M4282 5839 c2 -6 8 -10 13 -10 5 0 11 4 13 10 2 6 -4 11 -13 11 -9 0
-15 -5 -13 -11z"/>
<path d="M4130 5830 c0 -5 5 -10 11 -10 5 0 7 5 4 10 -3 6 -8 10 -11 10 -2 0
-4 -4 -4 -10z"/>
<path d="M4365 5830 c-3 -5 -1 -10 4 -10 6 0 11 5 11 10 0 6 -2 10 -4 10 -3 0
-8 -4 -11 -10z"/>
<path d="M4520 5830 c0 -5 5 -10 10 -10 6 0 10 5 10 10 0 6 -4 10 -10 10 -5 0
-10 -4 -10 -10z"/>
<path d="M4167 5814 c-8 -8 1 -24 14 -24 5 0 9 7 9 15 0 15 -12 20 -23 9z"/>
<path d="M4378 5793 c7 -3 16 -2 19 1 4 3 -2 6 -13 5 -11 0 -14 -3 -6 -6z"/>
<path d="M5318 5783 c7 -3 16 -2 19 1 4 3 -2 6 -13 5 -11 0 -14 -3 -6 -6z"/>
<path d="M4385 5760 c3 -5 -1 -10 -9 -10 -9 0 -16 -9 -16 -20 0 -22 34 -28 46
-8 5 8 2 9 -9 5 -10 -3 -17 -2 -17 3 0 5 10 12 21 15 17 6 19 9 8 16 -19 12
-32 11 -24 -1z"/>
<path d="M4533 5754 c-6 -16 14 -36 30 -31 15 5 6 22 -10 19 -11 -2 -14 1 -10
12 4 9 4 16 1 16 -2 0 -7 -7 -11 -16z"/>
<path d="M5848 5763 c7 -3 16 -2 19 1 4 3 -2 6 -13 5 -11 0 -14 -3 -6 -6z"/>
<path d="M4170 5750 c0 -5 5 -10 10 -10 6 0 10 5 10 10 0 6 -4 10 -10 10 -5 0
-10 -4 -10 -10z"/>
<path d="M6360 5750 c-8 -5 -12 -11 -9 -14 3 -3 14 1 25 9 21 16 8 20 -16 5z"/>
<path d="M4226 5731 c-4 -6 -9 -24 -11 -38 -1 -14 -9 -29 -16 -34 -15 -9 -14
-11 22 -26 l26 -11 -4 51 c-6 67 -8 74 -17 58z"/>
<path d="M4301 5724 c0 -11 3 -14 6 -6 3 7 2 16 -1 19 -3 4 -6 -2 -5 -13z"/>
<path d="M4662 5680 c14 -22 24 -19 15 5 -4 8 -11 15 -17 15 -6 0 -6 -7 2 -20z"/>
<path d="M5690 5686 c0 -9 5 -16 10 -16 6 0 10 4 10 9 0 6 -4 13 -10 16 -5 3
-10 -1 -10 -9z"/>
<path d="M4276 5671 c-4 -5 3 -7 14 -4 23 6 26 13 6 13 -8 0 -17 -4 -20 -9z"/>
<path d="M4820 5654 c0 -9 5 -14 12 -12 18 6 21 28 4 28 -9 0 -16 -7 -16 -16z"/>
<path d="M5155 5660 c-3 -5 -1 -10 4 -10 6 0 11 5 11 10 0 6 -2 10 -4 10 -3 0
-8 -4 -11 -10z"/>
<path d="M4305 5629 c-4 -6 -5 -12 -2 -15 2 -3 7 2 10 11 7 17 1 20 -8 4z"/>
<path d="M5110 5630 c0 -5 5 -10 10 -10 6 0 10 5 10 10 0 6 -4 10 -10 10 -5 0
-10 -4 -10 -10z"/>
<path d="M4485 5619 c-10 -15 3 -25 16 -12 7 7 7 13 1 17 -6 3 -14 1 -17 -5z"/>
<path d="M4425 5600 c4 -6 11 -8 16 -5 14 9 11 15 -7 15 -8 0 -12 -5 -9 -10z"/>
<path d="M4308 5578 c-16 -5 -28 -14 -28 -19 0 -5 -7 -9 -15 -9 -19 0 -20 -26
-2 -33 8 -3 20 -1 28 4 8 5 10 9 6 9 -4 0 -4 8 2 17 5 10 23 18 43 19 49 3 52
3 45 10 -11 11 -50 12 -79 2z"/>
<path d="M5835 5551 c-3 -5 -1 -12 4 -15 5 -3 11 1 15 9 6 16 -9 21 -19 6z"/>
<path d="M4306 5524 c-9 -22 3 -32 14 -14 12 19 12 30 1 30 -5 0 -12 -7 -15
-16z"/>
<path d="M6230 5526 c0 -2 7 -7 16 -10 8 -3 12 -2 9 4 -6 10 -25 14 -25 6z"/>
<path d="M4940 5513 c1 -21 27 -41 41 -32 11 7 11 9 -3 9 -10 0 -18 7 -18 15
0 8 -4 15 -10 15 -5 0 -10 -3 -10 -7z"/>
<path d="M6200 5499 c0 -11 27 -12 34 -1 2 4 -4 9 -15 9 -10 1 -19 -2 -19 -8z"/>
<path d="M6270 5498 c0 -4 7 -8 15 -8 8 0 15 4 15 8 0 5 -7 9 -15 9 -8 0 -15
-4 -15 -9z"/>
<path d="M4607 5481 c-3 -14 0 -21 9 -21 16 0 18 9 5 28 -6 10 -10 9 -14 -7z"/>
<path d="M5847 5486 c-4 -10 0 -12 14 -9 22 6 26 23 5 23 -8 0 -16 -6 -19 -14z"/>
<path d="M4920 5480 c0 -5 5 -10 11 -10 5 0 7 5 4 10 -3 6 -8 10 -11 10 -2 0
-4 -4 -4 -10z"/>
<path d="M6254 5465 c8 -8 20 -15 27 -15 7 0 4 6 -7 15 -25 19 -40 19 -20 0z"/>
<path d="M4830 5466 c0 -2 7 -9 15 -16 13 -11 14 -10 9 4 -5 14 -24 23 -24 12z"/>
<path d="M5387 5435 c3 -8 9 -12 14 -9 12 7 11 11 -5 17 -10 4 -13 1 -9 -8z"/>
<path d="M4313 5433 c-7 -3 -13 -9 -13 -15 0 -6 6 -8 14 -5 7 3 19 0 25 -6 6
-6 13 -8 16 -5 8 8 -29 36 -42 31z"/>
<path d="M5950 5410 c0 -5 5 -10 10 -10 6 0 10 5 10 10 0 6 -4 10 -10 10 -5 0
-10 -4 -10 -10z"/>
<path d="M5410 5400 c-8 -5 -11 -12 -7 -16 4 -4 13 -2 19 4 15 15 7 24 -12 12z"/>
<path d="M4470 5380 c0 -5 4 -10 9 -10 6 0 13 5 16 10 3 6 -1 10 -9 10 -9 0
-16 -4 -16 -10z"/>
<path d="M6385 5368 c-11 -32 -11 -38 -1 -40 5 -2 10 12 12 30 4 37 0 42 -11
10z"/>
<path d="M5880 5355 c0 -9 5 -15 11 -13 6 2 11 8 11 13 0 5 -5 11 -11 13 -6 2
-11 -4 -11 -13z"/>
<path d="M4180 5319 c0 -5 5 -7 10 -4 6 3 10 8 10 11 0 2 -4 4 -10 4 -5 0 -10
-5 -10 -11z"/>
<path d="M6288 5313 c7 -3 16 -2 19 1 4 3 -2 6 -13 5 -11 0 -14 -3 -6 -6z"/>
<path d="M6376 5295 c-3 -9 0 -15 9 -15 8 0 15 7 15 15 0 8 -4 15 -9 15 -5 0
-11 -7 -15 -15z"/>
<path d="M4200 5284 c0 -9 5 -14 12 -12 18 6 21 28 4 28 -9 0 -16 -7 -16 -16z"/>
<path d="M5590 5290 c0 -5 5 -10 10 -10 6 0 10 5 10 10 0 6 -4 10 -10 10 -5 0
-10 -4 -10 -10z"/>
<path d="M5680 5284 c0 -14 3 -14 15 -4 8 7 15 14 15 16 0 2 -7 4 -15 4 -8 0
-15 -7 -15 -16z"/>
<path d="M4289 5283 c-28 -7 -12 -41 17 -35 18 3 22 8 14 17 -5 6 -7 15 -3 18
7 7 -2 7 -28 0z"/>
<path d="M6336 5275 c4 -8 10 -12 15 -9 11 6 2 24 -11 24 -5 0 -7 -7 -4 -15z"/>
<path d="M5712 5264 c-11 -12 -11 -18 -1 -30 11 -14 14 -13 21 7 11 28 -2 42
-20 23z"/>
<path d="M5951 5264 c0 -11 3 -14 6 -6 3 7 2 16 -1 19 -3 4 -6 -2 -5 -13z"/>
<path d="M6280 5271 c0 -5 7 -12 16 -15 14 -5 15 -4 4 9 -14 17 -20 19 -20 6z"/>
<path d="M4622 5259 c2 -6 8 -10 13 -10 5 0 11 4 13 10 2 6 -4 11 -13 11 -9 0
-15 -5 -13 -11z"/>
<path d="M5310 5254 c0 -8 5 -12 10 -9 6 3 10 10 10 16 0 5 -4 9 -10 9 -5 0
-10 -7 -10 -16z"/>
<path d="M5382 5248 c-14 -14 -16 -38 -2 -38 5 0 7 7 4 15 -4 10 0 15 16 15
11 0 18 5 15 10 -8 13 -18 13 -33 -2z"/>
<path d="M5760 5250 c0 -5 7 -10 16 -10 8 0 12 5 9 10 -3 6 -10 10 -16 10 -5
0 -9 -4 -9 -10z"/>
<path d="M6378 5253 c7 -3 16 -2 19 1 4 3 -2 6 -13 5 -11 0 -14 -3 -6 -6z"/>
<path d="M5606 5241 c-4 -7 -5 -15 -2 -18 9 -9 19 4 14 18 -4 11 -6 11 -12 0z"/>
<path d="M6277 5224 c3 -8 14 -14 25 -14 23 0 16 16 -11 23 -14 3 -18 1 -14
-9z"/>
<path d="M4305 5220 c-3 -5 1 -10 9 -10 9 0 16 5 16 10 0 6 -4 10 -9 10 -6 0
-13 -4 -16 -10z"/>
<path d="M5653 5211 c1 -11 6 -17 14 -14 10 4 11 9 2 19 -15 19 -18 18 -16 -5z"/>
<path d="M6345 5220 c-18 -8 -18 -9 6 -9 14 -1 30 -6 37 -13 9 -9 12 -7 12 10
0 23 -19 28 -55 12z"/>
<path d="M5793 5203 c9 -14 47 -24 47 -12 0 5 -4 9 -9 9 -5 0 -17 3 -27 7 -11
4 -15 3 -11 -4z"/>
<path d="M6004 5185 c-18 -15 -18 -15 5 -13 14 2 26 9 29 16 5 17 -10 15 -34
-3z"/>
<path d="M5472 5178 c-16 -16 -15 -28 2 -28 7 0 16 9 19 20 6 23 -3 26 -21 8z"/>
<path d="M5620 5180 c0 -5 5 -10 11 -10 5 0 7 5 4 10 -3 6 -8 10 -11 10 -2 0
-4 -4 -4 -10z"/>
<path d="M5875 5180 c-3 -5 -2 -10 4 -10 5 0 13 5 16 10 3 6 2 10 -4 10 -5 0
-13 -4 -16 -10z"/>
<path d="M5650 5168 c0 -5 16 -8 35 -8 19 0 35 4 35 9 0 6 -16 9 -35 8 -19 -1
-35 -5 -35 -9z"/>
<path d="M5791 5171 c-10 -6 -10 -10 -1 -16 13 -8 24 -1 19 14 -3 6 -10 7 -18
2z"/>
<path d="M4790 5142 c0 -12 19 -26 26 -19 2 2 -2 10 -11 17 -9 8 -15 8 -15 2z"/>
<path d="M5620 5140 c-12 -8 -10 -10 8 -10 13 0 20 4 17 10 -7 12 -6 12 -25 0z"/>
<path d="M4286 5123 c-3 -3 -6 -13 -6 -21 0 -11 3 -12 13 -3 10 8 17 7 25 -1
9 -9 12 -9 12 0 0 14 -35 34 -44 25z"/>
<path d="M5610 5110 c0 -5 5 -10 10 -10 6 0 10 5 10 10 0 6 -4 10 -10 10 -5 0
-10 -4 -10 -10z"/>
<path d="M4100 5030 c0 -5 5 -10 10 -10 6 0 10 5 10 10 0 6 -4 10 -10 10 -5 0
-10 -4 -10 -10z"/>
<path d="M5590 4999 c0 -5 5 -7 10 -4 6 3 10 8 10 11 0 2 -4 4 -10 4 -5 0 -10
-5 -10 -11z"/>
<path d="M5400 4991 c0 -6 5 -13 10 -16 6 -3 10 1 10 9 0 9 -4 16 -10 16 -5 0
-10 -4 -10 -9z"/>
<path d="M5541 4986 c-9 -11 -8 -15 5 -20 24 -9 31 -7 14 4 -13 9 -13 11 0 20
8 5 10 10 4 10 -6 0 -17 -6 -23 -14z"/>
<path d="M5501 4974 c0 -11 3 -14 6 -6 3 7 2 16 -1 19 -3 4 -6 -2 -5 -13z"/>
<path d="M4840 4970 c0 -5 5 -10 10 -10 6 0 10 5 10 10 0 6 -4 10 -10 10 -5 0
-10 -4 -10 -10z"/>
<path d="M4230 4960 c-20 -12 -5 -24 16 -12 9 5 12 12 7 15 -5 3 -15 2 -23 -3z"/>
<path d="M4620 4960 c0 -5 5 -10 10 -10 6 0 10 5 10 10 0 6 -4 10 -10 10 -5 0
-10 -4 -10 -10z"/>
<path d="M5590 4960 c0 -5 5 -10 11 -10 5 0 7 5 4 10 -3 6 -8 10 -11 10 -2 0
-4 -4 -4 -10z"/>
<path d="M5407 4945 c-4 -8 -2 -17 3 -20 6 -4 10 -4 10 -1 0 2 3 11 6 20 3 9
2 16 -4 16 -5 0 -12 -7 -15 -15z"/>
<path d="M4160 4946 c0 -2 -7 -20 -15 -40 -14 -33 -14 -36 1 -36 8 0 14 6 11
13 -2 6 5 20 15 29 11 9 17 22 13 27 -6 10 -25 15 -25 7z"/>
<path d="M4247 4925 c-4 -8 -2 -17 3 -20 6 -4 10 3 10 14 0 25 -6 27 -13 6z"/>
<path d="M5610 4914 c0 -8 5 -12 10 -9 6 3 10 10 10 16 0 5 -4 9 -10 9 -5 0
-10 -7 -10 -16z"/>
<path d="M5510 4907 c0 -10 5 -17 10 -17 6 0 10 -4 10 -9 0 -5 -10 -7 -22 -3
-14 3 -19 2 -14 -6 4 -7 18 -12 32 -12 28 0 33 -16 7 -23 -11 -3 -7 -5 10 -6
22 -1 27 3 27 24 0 18 4 23 15 18 20 -7 16 17 -5 34 -16 12 -34 7 -25 -8 10
-15 -7 -10 -27 8 -17 15 -18 15 -18 0z"/>
<path d="M5204 4897 c-4 -7 -4 -9 1 -5 4 4 14 3 22 -3 8 -7 13 -8 13 -1 0 15
-28 23 -36 9z"/>
<path d="M4174 4885 c-5 -12 -1 -22 11 -31 25 -19 28 -12 11 21 -13 26 -16 27
-22 10z"/>
<path d="M5450 4890 c0 -5 5 -10 11 -10 5 0 7 5 4 10 -3 6 -8 10 -11 10 -2 0
-4 -4 -4 -10z"/>
<path d="M4255 4880 c3 -5 10 -10 16 -10 5 0 9 5 9 10 0 6 -7 10 -16 10 -8 0
-12 -4 -9 -10z"/>
<path d="M4811 4844 c0 -11 3 -14 6 -6 3 7 2 16 -1 19 -3 4 -6 -2 -5 -13z"/>
<path d="M4274 4835 c10 -8 24 -11 29 -8 6 4 2 10 -9 14 -31 12 -40 9 -20 -6z"/>
<path d="M4131 4831 c-10 -7 -10 -9 2 -14 19 -7 28 -67 10 -67 -21 0 -15 -21
7 -27 22 -6 26 -18 10 -28 -18 -11 -11 -23 10 -18 27 7 36 23 19 34 -8 5 -10
9 -5 9 5 0 3 7 -4 15 -7 9 -10 18 -7 22 4 3 2 11 -3 18 -5 6 -11 21 -13 33 -4
28 -10 33 -26 23z"/>
<path d="M4182 4805 c8 -17 14 -22 19 -14 10 16 0 39 -17 39 -11 0 -11 -5 -2
-25z"/>
<path d="M5490 4821 c0 -6 5 -13 10 -16 6 -3 10 1 10 9 0 9 -4 16 -10 16 -5 0
-10 -4 -10 -9z"/>
<path d="M5215 4810 c3 -5 16 -10 27 -10 26 0 16 13 -13 17 -12 2 -18 -1 -14
-7z"/>
<path d="M4794 4795 c10 -8 23 -12 28 -9 14 9 -2 24 -25 24 -21 -1 -21 -1 -3
-15z"/>
<path d="M4115 4781 c-3 -5 -1 -12 5 -16 5 -3 10 1 10 9 0 18 -6 21 -15 7z"/>
<path d="M5240 4766 c0 -2 7 -7 16 -10 8 -3 12 -2 9 4 -6 10 -25 14 -25 6z"/>
<path d="M4520 4750 c0 -5 5 -10 10 -10 6 0 10 5 10 10 0 6 -4 10 -10 10 -5 0
-10 -4 -10 -10z"/>
<path d="M5050 4750 c0 -5 5 -10 10 -10 6 0 10 5 10 10 0 6 -4 10 -10 10 -5 0
-10 -4 -10 -10z"/>
<path d="M5430 4750 c0 -5 7 -7 15 -4 8 4 15 8 15 10 0 2 -7 4 -15 4 -8 0 -15
-4 -15 -10z"/>
<path d="M5070 4650 c0 -5 5 -10 11 -10 5 0 7 5 4 10 -3 6 -8 10 -11 10 -2 0
-4 -4 -4 -10z"/>
<path d="M4180 4640 c0 -5 7 -10 15 -10 8 0 15 5 15 10 0 6 -7 10 -15 10 -8 0
-15 -4 -15 -10z"/>
<path d="M5290 4616 c0 -9 5 -16 10 -16 6 0 10 4 10 9 0 6 -4 13 -10 16 -5 3
-10 -1 -10 -9z"/>
<path d="M4325 4609 c-10 -15 1 -23 20 -15 9 3 13 10 10 16 -8 13 -22 13 -30
-1z"/>
<path d="M5325 4610 c3 -5 8 -10 11 -10 2 0 4 5 4 10 0 6 -5 10 -11 10 -5 0
-7 -4 -4 -10z"/>
<path d="M4658 4583 c7 -3 16 -2 19 1 4 3 -2 6 -13 5 -11 0 -14 -3 -6 -6z"/>
<path d="M5300 4580 c0 -5 5 -10 10 -10 6 0 10 5 10 10 0 6 -4 10 -10 10 -5 0
-10 -4 -10 -10z"/>
<path d="M4427 4559 c7 -7 15 -10 18 -7 3 3 -2 9 -12 12 -14 6 -15 5 -6 -5z"/>
<path d="M4340 4505 c0 -15 4 -24 10 -20 6 3 10 12 10 20 0 8 -4 17 -10 20 -6
4 -10 -5 -10 -20z"/>
<path d="M4375 4510 c-3 -5 -1 -10 4 -10 6 0 11 5 11 10 0 6 -2 10 -4 10 -3 0
-8 -4 -11 -10z"/>
<path d="M4203 4475 c-9 -24 1 -27 15 -5 8 13 8 20 2 20 -6 0 -13 -7 -17 -15z"/>
<path d="M4460 4466 c0 -9 5 -16 10 -16 6 0 10 4 10 9 0 6 -4 13 -10 16 -5 3
-10 -1 -10 -9z"/>
<path d="M5254 4419 c-3 -6 -1 -16 5 -22 8 -8 11 -5 11 11 0 24 -5 28 -16 11z"/>
<path d="M5228 4343 c7 -3 16 -2 19 1 4 3 -2 6 -13 5 -11 0 -14 -3 -6 -6z"/>
<path d="M5210 4313 c0 -5 5 -15 10 -23 8 -12 10 -11 10 8 0 12 -4 22 -10 22
-5 0 -10 -3 -10 -7z"/>
<path d="M4365 4260 c-3 -5 -1 -10 4 -10 6 0 11 5 11 10 0 6 -2 10 -4 10 -3 0
-8 -4 -11 -10z"/>
<path d="M4260 4230 c0 -11 5 -20 10 -20 6 0 10 9 10 20 0 11 -4 20 -10 20 -5
0 -10 -9 -10 -20z"/>
<path d="M5230 4240 c0 -5 5 -10 10 -10 6 0 10 5 10 10 0 6 -4 10 -10 10 -5 0
-10 -4 -10 -10z"/>
<path d="M4340 4190 c0 -5 5 -10 10 -10 6 0 10 5 10 10 0 6 -4 10 -10 10 -5 0
-10 -4 -10 -10z"/>
<path d="M5174 4189 c-3 -6 -1 -16 5 -22 8 -8 11 -5 11 11 0 24 -5 28 -16 11z"/>
<path d="M5200 4196 c0 -2 7 -6 15 -10 8 -3 15 -1 15 4 0 6 -7 10 -15 10 -8 0
-15 -2 -15 -4z"/>
<path d="M4345 4160 c3 -5 8 -10 11 -10 2 0 4 5 4 10 0 6 -5 10 -11 10 -5 0
-7 -4 -4 -10z"/>
<path d="M5270 4160 c0 -5 5 -10 11 -10 5 0 7 5 4 10 -3 6 -8 10 -11 10 -2 0
-4 -4 -4 -10z"/>
<path d="M5290 4130 c0 -5 5 -10 10 -10 6 0 10 5 10 10 0 6 -4 10 -10 10 -5 0
-10 -4 -10 -10z"/>
<path d="M4877 4123 c-4 -3 -7 -11 -7 -17 0 -6 5 -5 12 2 6 6 9 14 7 17 -3 3
-9 2 -12 -2z"/>
<path d="M4885 4040 c-3 -5 -1 -10 4 -10 6 0 11 5 11 10 0 6 -2 10 -4 10 -3 0
-8 -4 -11 -10z"/>
<path d="M4605 4020 c3 -5 8 -10 11 -10 2 0 4 5 4 10 0 6 -5 10 -11 10 -5 0
-7 -4 -4 -10z"/>
<path d="M4464 3935 c-1 -14 2 -25 7 -25 5 0 9 4 9 9 0 5 3 16 6 25 4 10 1 16
-7 16 -8 0 -15 -11 -15 -25z"/>
<path d="M4740 3920 c0 -5 5 -10 11 -10 5 0 7 5 4 10 -3 6 -8 10 -11 10 -2 0
-4 -4 -4 -10z"/>
<path d="M4688 3876 c-10 -7 -15 -16 -11 -20 4 -4 1 -11 -7 -16 -8 -6 -10 -10
-4 -10 15 0 54 35 54 49 0 14 -11 14 -32 -3z"/>
<path d="M4580 3850 c0 -5 5 -10 10 -10 6 0 10 5 10 10 0 6 -4 10 -10 10 -5 0
-10 -4 -10 -10z"/>
<path d="M4430 3835 c-7 -9 -8 -15 -2 -15 5 0 12 7 16 15 3 8 4 15 2 15 -2 0
-9 -7 -16 -15z"/>
<path d="M4430 3789 c0 -5 5 -7 10 -4 6 3 10 8 10 11 0 2 -4 4 -10 4 -5 0 -10
-5 -10 -11z"/>
<path d="M4390 3740 c0 -15 21 -23 32 -12 6 6 2 11 -11 15 -12 3 -21 1 -21 -3z"/>
<path d="M4447 3730 c-3 -13 -14 -20 -29 -20 -20 -1 -21 -2 -5 -11 13 -8 21
-6 33 6 9 8 20 13 25 10 5 -4 9 3 9 14 0 27 -26 27 -33 1z"/>
<path d="M4505 3730 c-3 -5 1 -10 9 -10 9 0 16 5 16 10 0 6 -4 10 -9 10 -6 0
-13 -4 -16 -10z"/>
<path d="M4386 3682 c-2 -4 7 -9 22 -10 21 -1 24 0 12 8 -18 12 -27 12 -34 2z"/>
<path d="M4495 3680 c3 -5 10 -10 16 -10 5 0 9 5 9 10 0 6 -7 10 -16 10 -8 0
-12 -4 -9 -10z"/>
<path d="M4803 3669 c-1 -10 2 -19 8 -19 11 0 12 27 1 34 -4 2 -9 -4 -9 -15z"/>
<path d="M4793 3575 c0 -8 4 -15 9 -15 4 0 8 4 8 9 0 6 -4 12 -8 15 -5 3 -9
-1 -9 -9z"/>
<path d="M4775 3430 c3 -5 8 -10 11 -10 2 0 4 5 4 10 0 6 -5 10 -11 10 -5 0
-7 -4 -4 -10z"/>
</g>
</svg>
